<mxfile host="Electron" agent="Mozilla/5.0 (Windows NT 10.0; Win64; x64) AppleWebKit/537.36 (KHTML, like Gecko) draw.io/27.0.9 Chrome/134.0.6998.205 Electron/35.4.0 Safari/537.36" version="27.0.9">
  <diagram name="Page-1" id="lOMRA3BQwj0vai2-GFp4">
    <mxGraphModel dx="1042" dy="722" grid="1" gridSize="10" guides="1" tooltips="1" connect="1" arrows="1" fold="1" page="1" pageScale="1" pageWidth="3300" pageHeight="4681" math="0" shadow="0">
      <root>
        <mxCell id="0" />
        <mxCell id="1" parent="0" />
        <mxCell id="gC_mocNsBPqdo_k-t1aw-1" value="" style="rounded=0;whiteSpace=wrap;html=1;fillColor=default;" parent="1" vertex="1">
          <mxGeometry x="20" y="60" width="120" height="540" as="geometry" />
        </mxCell>
        <mxCell id="gC_mocNsBPqdo_k-t1aw-2" value="&lt;b&gt;&lt;font style=&quot;font-size: 18px;&quot;&gt;SOURCE&lt;/font&gt;&lt;/b&gt;&amp;nbsp;" style="rounded=0;whiteSpace=wrap;html=1;fillColor=default;strokeColor=default;" parent="1" vertex="1">
          <mxGeometry x="20" y="30" width="120" height="60" as="geometry" />
        </mxCell>
        <mxCell id="gC_mocNsBPqdo_k-t1aw-3" value="" style="rounded=0;whiteSpace=wrap;html=1;fillColor=#ffe6cc;strokeColor=#d79b00;" parent="1" vertex="1">
          <mxGeometry x="390" y="120" width="240" height="440" as="geometry" />
        </mxCell>
        <mxCell id="gC_mocNsBPqdo_k-t1aw-4" value="&lt;b&gt;&lt;font style=&quot;font-size: 18px;&quot;&gt;BRONZE LAYER&amp;nbsp;&lt;/font&gt;&lt;/b&gt;" style="rounded=0;whiteSpace=wrap;html=1;fillColor=#ffe6cc;strokeColor=#d79b00;" parent="1" vertex="1">
          <mxGeometry x="400" y="50" width="220" height="60" as="geometry" />
        </mxCell>
        <mxCell id="gC_mocNsBPqdo_k-t1aw-5" value="" style="image;aspect=fixed;html=1;points=[];align=center;fontSize=12;image=img/lib/azure2/general/Folder_Blank.svg;" parent="1" vertex="1">
          <mxGeometry x="45.5" y="130" width="69" height="56.00000000000001" as="geometry" />
        </mxCell>
        <mxCell id="gC_mocNsBPqdo_k-t1aw-6" value="" style="image;aspect=fixed;html=1;points=[];align=center;fontSize=12;image=img/lib/azure2/general/Folder_Blank.svg;" parent="1" vertex="1">
          <mxGeometry x="45.5" y="410" width="69" height="56.00000000000001" as="geometry" />
        </mxCell>
        <mxCell id="gC_mocNsBPqdo_k-t1aw-8" value="" style="edgeStyle=elbowEdgeStyle;elbow=horizontal;endArrow=classic;html=1;curved=0;rounded=0;endSize=8;startSize=8;entryX=0.292;entryY=0.159;entryDx=0;entryDy=0;entryPerimeter=0;" parent="1" target="gC_mocNsBPqdo_k-t1aw-3" edge="1" source="gC_mocNsBPqdo_k-t1aw-5">
          <mxGeometry width="50" height="50" relative="1" as="geometry">
            <mxPoint x="220" y="220" as="sourcePoint" />
            <mxPoint x="270" y="170" as="targetPoint" />
          </mxGeometry>
        </mxCell>
        <mxCell id="gC_mocNsBPqdo_k-t1aw-9" value="" style="edgeStyle=elbowEdgeStyle;elbow=horizontal;endArrow=classic;html=1;curved=0;rounded=0;endSize=8;startSize=8;" parent="1" edge="1">
          <mxGeometry width="50" height="50" relative="1" as="geometry">
            <mxPoint x="310" y="190" as="sourcePoint" />
            <mxPoint x="470" y="250" as="targetPoint" />
          </mxGeometry>
        </mxCell>
        <mxCell id="gC_mocNsBPqdo_k-t1aw-10" value="" style="edgeStyle=elbowEdgeStyle;elbow=horizontal;endArrow=classic;html=1;curved=0;rounded=0;endSize=8;startSize=8;entryX=0.208;entryY=0.227;entryDx=0;entryDy=0;entryPerimeter=0;" parent="1" target="gC_mocNsBPqdo_k-t1aw-3" edge="1">
          <mxGeometry width="50" height="50" relative="1" as="geometry">
            <mxPoint x="290" y="190" as="sourcePoint" />
            <mxPoint x="390" y="170" as="targetPoint" />
          </mxGeometry>
        </mxCell>
        <mxCell id="gC_mocNsBPqdo_k-t1aw-11" value="" style="edgeStyle=elbowEdgeStyle;elbow=horizontal;endArrow=classic;html=1;curved=0;rounded=0;endSize=8;startSize=8;" parent="1" edge="1">
          <mxGeometry width="50" height="50" relative="1" as="geometry">
            <mxPoint x="210" y="440" as="sourcePoint" />
            <mxPoint x="430" y="440" as="targetPoint" />
          </mxGeometry>
        </mxCell>
        <mxCell id="gC_mocNsBPqdo_k-t1aw-12" value="" style="edgeStyle=elbowEdgeStyle;elbow=horizontal;endArrow=classic;html=1;curved=0;rounded=0;endSize=8;startSize=8;" parent="1" edge="1">
          <mxGeometry width="50" height="50" relative="1" as="geometry">
            <mxPoint x="200" y="440" as="sourcePoint" />
            <mxPoint x="420" y="410" as="targetPoint" />
          </mxGeometry>
        </mxCell>
        <mxCell id="gC_mocNsBPqdo_k-t1aw-13" value="" style="edgeStyle=elbowEdgeStyle;elbow=horizontal;endArrow=classic;html=1;curved=0;rounded=0;endSize=8;startSize=8;" parent="1" edge="1" source="gC_mocNsBPqdo_k-t1aw-6">
          <mxGeometry width="50" height="50" relative="1" as="geometry">
            <mxPoint x="210" y="440" as="sourcePoint" />
            <mxPoint x="460" y="481" as="targetPoint" />
          </mxGeometry>
        </mxCell>
        <mxCell id="gC_mocNsBPqdo_k-t1aw-14" value="CRM_SALES_DETAILS" style="text;html=1;align=center;verticalAlign=middle;whiteSpace=wrap;rounded=0;" parent="1" vertex="1">
          <mxGeometry x="500" y="173" width="60" height="30" as="geometry" />
        </mxCell>
        <mxCell id="gC_mocNsBPqdo_k-t1aw-15" value="CRM_CUST_INFO" style="text;html=1;align=center;verticalAlign=middle;whiteSpace=wrap;rounded=0;" parent="1" vertex="1">
          <mxGeometry x="470" y="203" width="60" height="30" as="geometry" />
        </mxCell>
        <mxCell id="gC_mocNsBPqdo_k-t1aw-16" value="CRM_PRD_INFO" style="text;html=1;align=center;verticalAlign=middle;whiteSpace=wrap;rounded=0;" parent="1" vertex="1">
          <mxGeometry x="490" y="233" width="60" height="30" as="geometry" />
        </mxCell>
        <mxCell id="gC_mocNsBPqdo_k-t1aw-17" value="ERP_CUST_AZ12" style="text;html=1;align=center;verticalAlign=middle;whiteSpace=wrap;rounded=0;" parent="1" vertex="1">
          <mxGeometry x="450" y="393" width="60" height="30" as="geometry" />
        </mxCell>
        <mxCell id="gC_mocNsBPqdo_k-t1aw-18" value="ERP_LOC_A101" style="text;html=1;align=center;verticalAlign=middle;whiteSpace=wrap;rounded=0;" parent="1" vertex="1">
          <mxGeometry x="450" y="423" width="60" height="30" as="geometry" />
        </mxCell>
        <mxCell id="gC_mocNsBPqdo_k-t1aw-19" value="ERP_PX_CAT_G1V2" style="text;html=1;align=center;verticalAlign=middle;whiteSpace=wrap;rounded=0;" parent="1" vertex="1">
          <mxGeometry x="500" y="466" width="60" height="30" as="geometry" />
        </mxCell>
        <mxCell id="gC_mocNsBPqdo_k-t1aw-21" value="" style="rounded=0;whiteSpace=wrap;html=1;fillColor=#f5f5f5;fontColor=#333333;strokeColor=#666666;" parent="1" vertex="1">
          <mxGeometry x="740" y="120" width="160" height="440" as="geometry" />
        </mxCell>
        <mxCell id="gC_mocNsBPqdo_k-t1aw-22" value="&lt;b&gt;&lt;font style=&quot;font-size: 15px;&quot;&gt;SILVER LAYER&lt;/font&gt;&lt;/b&gt;" style="rounded=0;whiteSpace=wrap;html=1;fillColor=#f5f5f5;fontColor=#333333;strokeColor=#666666;" parent="1" vertex="1">
          <mxGeometry x="760" y="50" width="120" height="60" as="geometry" />
        </mxCell>
        <mxCell id="gC_mocNsBPqdo_k-t1aw-24" value="CRM_SALES_DETAILS" style="text;html=1;align=center;verticalAlign=middle;whiteSpace=wrap;rounded=0;" parent="1" vertex="1">
          <mxGeometry x="780" y="170" width="60" height="30" as="geometry" />
        </mxCell>
        <mxCell id="gC_mocNsBPqdo_k-t1aw-25" value="&#xa;&lt;span style=&quot;color: rgb(0, 0, 0); font-family: Helvetica; font-size: 12px; font-style: normal; font-variant-ligatures: normal; font-variant-caps: normal; font-weight: 400; letter-spacing: normal; orphans: 2; text-align: center; text-indent: 0px; text-transform: none; widows: 2; word-spacing: 0px; -webkit-text-stroke-width: 0px; white-space: normal; background-color: rgb(236, 236, 236); text-decoration-thickness: initial; text-decoration-style: initial; text-decoration-color: initial; display: inline !important; float: none;&quot;&gt;CRM_CUST_INFO&lt;/span&gt;&#xa;&#xa;" style="text;html=1;align=center;verticalAlign=middle;whiteSpace=wrap;rounded=0;" parent="1" vertex="1">
          <mxGeometry x="770" y="215" width="60" height="30" as="geometry" />
        </mxCell>
        <mxCell id="gC_mocNsBPqdo_k-t1aw-26" value="CRM_PRD_INFO" style="text;html=1;align=center;verticalAlign=middle;whiteSpace=wrap;rounded=0;" parent="1" vertex="1">
          <mxGeometry x="780" y="270" width="60" height="30" as="geometry" />
        </mxCell>
        <mxCell id="gC_mocNsBPqdo_k-t1aw-27" value="ERP_CUST_AZ12" style="text;html=1;align=center;verticalAlign=middle;whiteSpace=wrap;rounded=0;" parent="1" vertex="1">
          <mxGeometry x="790" y="370" width="60" height="30" as="geometry" />
        </mxCell>
        <mxCell id="gC_mocNsBPqdo_k-t1aw-28" value="ERP_LOC_A101" style="text;html=1;align=center;verticalAlign=middle;whiteSpace=wrap;rounded=0;" parent="1" vertex="1">
          <mxGeometry x="790" y="436" width="60" height="30" as="geometry" />
        </mxCell>
        <mxCell id="gC_mocNsBPqdo_k-t1aw-29" value="ERP_PX_CAT_G1V2" style="text;html=1;align=center;verticalAlign=middle;whiteSpace=wrap;rounded=0;" parent="1" vertex="1">
          <mxGeometry x="790" y="496" width="60" height="30" as="geometry" />
        </mxCell>
        <mxCell id="gC_mocNsBPqdo_k-t1aw-30" value="" style="edgeStyle=elbowEdgeStyle;elbow=horizontal;endArrow=classic;html=1;curved=0;rounded=0;endSize=8;startSize=8;" parent="1" edge="1">
          <mxGeometry width="50" height="50" relative="1" as="geometry">
            <mxPoint x="540" y="410" as="sourcePoint" />
            <mxPoint x="770" y="385" as="targetPoint" />
          </mxGeometry>
        </mxCell>
        <mxCell id="gC_mocNsBPqdo_k-t1aw-31" value="" style="edgeStyle=elbowEdgeStyle;elbow=horizontal;endArrow=classic;html=1;curved=0;rounded=0;endSize=8;startSize=8;" parent="1" edge="1">
          <mxGeometry width="50" height="50" relative="1" as="geometry">
            <mxPoint x="540" y="440" as="sourcePoint" />
            <mxPoint x="760" y="450" as="targetPoint" />
          </mxGeometry>
        </mxCell>
        <mxCell id="gC_mocNsBPqdo_k-t1aw-32" value="" style="edgeStyle=elbowEdgeStyle;elbow=horizontal;endArrow=classic;html=1;curved=0;rounded=0;endSize=8;startSize=8;" parent="1" edge="1">
          <mxGeometry width="50" height="50" relative="1" as="geometry">
            <mxPoint x="600" y="480" as="sourcePoint" />
            <mxPoint x="760" y="511" as="targetPoint" />
          </mxGeometry>
        </mxCell>
        <mxCell id="gC_mocNsBPqdo_k-t1aw-33" value="" style="edgeStyle=elbowEdgeStyle;elbow=horizontal;endArrow=classic;html=1;curved=0;rounded=0;endSize=8;startSize=8;" parent="1" edge="1">
          <mxGeometry width="50" height="50" relative="1" as="geometry">
            <mxPoint x="570" y="250" as="sourcePoint" />
            <mxPoint x="760" y="280" as="targetPoint" />
          </mxGeometry>
        </mxCell>
        <mxCell id="gC_mocNsBPqdo_k-t1aw-34" value="" style="edgeStyle=elbowEdgeStyle;elbow=horizontal;endArrow=classic;html=1;curved=0;rounded=0;endSize=8;startSize=8;" parent="1" edge="1">
          <mxGeometry width="50" height="50" relative="1" as="geometry">
            <mxPoint x="580" y="210" as="sourcePoint" />
            <mxPoint x="730" y="220" as="targetPoint" />
          </mxGeometry>
        </mxCell>
        <mxCell id="gC_mocNsBPqdo_k-t1aw-35" value="" style="edgeStyle=elbowEdgeStyle;elbow=horizontal;endArrow=classic;html=1;curved=0;rounded=0;endSize=8;startSize=8;" parent="1" edge="1">
          <mxGeometry width="50" height="50" relative="1" as="geometry">
            <mxPoint x="600" y="190" as="sourcePoint" />
            <mxPoint x="730" y="185" as="targetPoint" />
          </mxGeometry>
        </mxCell>
        <mxCell id="gC_mocNsBPqdo_k-t1aw-36" value="" style="rounded=0;whiteSpace=wrap;html=1;fillColor=#fff2cc;strokeColor=#d6b656;" parent="1" vertex="1">
          <mxGeometry x="1030" y="120" width="170" height="440" as="geometry" />
        </mxCell>
        <mxCell id="gC_mocNsBPqdo_k-t1aw-37" value="&lt;b&gt;GOLD LAYER&lt;/b&gt;" style="rounded=0;whiteSpace=wrap;html=1;fillColor=#fff2cc;strokeColor=#d6b656;" parent="1" vertex="1">
          <mxGeometry x="1050" y="50" width="120" height="60" as="geometry" />
        </mxCell>
        <mxCell id="gC_mocNsBPqdo_k-t1aw-38" value="FACT_SALES" style="rounded=0;whiteSpace=wrap;html=1;fillColor=#dae8fc;strokeColor=#6c8ebf;" parent="1" vertex="1">
          <mxGeometry x="1055" y="170" width="120" height="60" as="geometry" />
        </mxCell>
        <mxCell id="gC_mocNsBPqdo_k-t1aw-39" value="DIM_CUSTOMERS" style="rounded=0;whiteSpace=wrap;html=1;fillColor=#dae8fc;strokeColor=#6c8ebf;" parent="1" vertex="1">
          <mxGeometry x="1055" y="290" width="120" height="60" as="geometry" />
        </mxCell>
        <mxCell id="gC_mocNsBPqdo_k-t1aw-40" value="DIM_PRODUCTS" style="rounded=0;whiteSpace=wrap;html=1;fillColor=#dae8fc;strokeColor=#6c8ebf;" parent="1" vertex="1">
          <mxGeometry x="1055" y="421" width="120" height="60" as="geometry" />
        </mxCell>
        <mxCell id="gC_mocNsBPqdo_k-t1aw-41" value="" style="curved=1;endArrow=classic;html=1;rounded=0;entryX=0;entryY=0.25;entryDx=0;entryDy=0;" parent="1" target="gC_mocNsBPqdo_k-t1aw-38" edge="1">
          <mxGeometry width="50" height="50" relative="1" as="geometry">
            <mxPoint x="880" y="185" as="sourcePoint" />
            <mxPoint x="950" y="140" as="targetPoint" />
            <Array as="points">
              <mxPoint x="950" y="190" />
              <mxPoint x="900" y="140" />
            </Array>
          </mxGeometry>
        </mxCell>
        <mxCell id="gC_mocNsBPqdo_k-t1aw-42" value="" style="endArrow=classic;html=1;rounded=0;exitX=0.75;exitY=0.25;exitDx=0;exitDy=0;exitPerimeter=0;" parent="1" source="gC_mocNsBPqdo_k-t1aw-21" target="gC_mocNsBPqdo_k-t1aw-39" edge="1">
          <mxGeometry width="50" height="50" relative="1" as="geometry">
            <mxPoint x="900" y="220" as="sourcePoint" />
            <mxPoint x="950" y="170" as="targetPoint" />
          </mxGeometry>
        </mxCell>
        <mxCell id="gC_mocNsBPqdo_k-t1aw-43" value="" style="endArrow=classic;html=1;rounded=0;entryX=0;entryY=0.5;entryDx=0;entryDy=0;" parent="1" target="gC_mocNsBPqdo_k-t1aw-40" edge="1">
          <mxGeometry width="50" height="50" relative="1" as="geometry">
            <mxPoint x="880" y="300" as="sourcePoint" />
            <mxPoint x="900" y="230" as="targetPoint" />
          </mxGeometry>
        </mxCell>
        <mxCell id="gC_mocNsBPqdo_k-t1aw-44" value="" style="endArrow=classic;html=1;rounded=0;entryX=0;entryY=0.75;entryDx=0;entryDy=0;" parent="1" target="gC_mocNsBPqdo_k-t1aw-39" edge="1">
          <mxGeometry width="50" height="50" relative="1" as="geometry">
            <mxPoint x="870" y="390" as="sourcePoint" />
            <mxPoint x="920" y="340" as="targetPoint" />
          </mxGeometry>
        </mxCell>
        <mxCell id="gC_mocNsBPqdo_k-t1aw-46" value="" style="endArrow=classic;html=1;rounded=0;" parent="1" target="gC_mocNsBPqdo_k-t1aw-39" edge="1">
          <mxGeometry width="50" height="50" relative="1" as="geometry">
            <mxPoint x="880" y="450" as="sourcePoint" />
            <mxPoint x="910" y="410" as="targetPoint" />
          </mxGeometry>
        </mxCell>
        <mxCell id="gC_mocNsBPqdo_k-t1aw-47" value="" style="endArrow=classic;html=1;rounded=0;" parent="1" edge="1">
          <mxGeometry width="50" height="50" relative="1" as="geometry">
            <mxPoint x="890" y="510" as="sourcePoint" />
            <mxPoint x="1050" y="480" as="targetPoint" />
          </mxGeometry>
        </mxCell>
        <mxCell id="0wIEctLNj4kXjNNEJu2x-1" value="CRM" style="text;html=1;align=center;verticalAlign=middle;whiteSpace=wrap;rounded=0;" vertex="1" parent="1">
          <mxGeometry x="50" y="185" width="60" height="30" as="geometry" />
        </mxCell>
        <mxCell id="0wIEctLNj4kXjNNEJu2x-2" value="ERP" style="text;html=1;align=center;verticalAlign=middle;whiteSpace=wrap;rounded=0;" vertex="1" parent="1">
          <mxGeometry x="50" y="466" width="60" height="30" as="geometry" />
        </mxCell>
      </root>
    </mxGraphModel>
  </diagram>
</mxfile>
